<?xml version="1.0"?>
<svg xmlns="http://www.w3.org/2000/svg" version="1.1" width="600px" height="600px" viewBox="0 0 200 200" style="overflow:hidden!important;">
  <defs id="SvgjsDefs1007">
    <radialGradient id="SvgjsRadialGradient2770" cx="100" cy="113" r="40" gradientUnits="userSpaceOnUse" class="svga-on-canvas-facehighlight-gradient-single-0">
      <stop id="SvgjsStop2771" stop-opacity="0.5" stop-color="#fff4f3" offset="0"/>
      <stop id="SvgjsStop2772" stop-opacity="0" stop-color="#f3d4cf" offset="0.9"/>
    </radialGradient>
    <radialGradient id="SvgjsRadialGradient2774" cx="100" cy="57" r="36" gradientUnits="userSpaceOnUse" class="svga-on-canvas-facehighlight-gradient-single-1">
      <stop id="SvgjsStop2775" stop-opacity="0.5" stop-color="#fff4f3" offset="0"/>
      <stop id="SvgjsStop2776" stop-opacity="0" stop-color="#f3d4cf" offset="0.9"/>
    </radialGradient>
    <linearGradient id="SvgjsLinearGradient2899" x1="100" y1="141" x2="100" y2="138" gradientUnits="userSpaceOnUse" class="svga-on-canvas-mouth-gradient-single-0">
      <stop id="SvgjsStop2900" stop-opacity="1" stop-color="#ebc3bd" offset="0.1"/>
      <stop id="SvgjsStop2901" stop-opacity="1" stop-color="#e4b3ab" offset="1"/>
    </linearGradient>
    <linearGradient id="SvgjsLinearGradient2927" x1="99.98" y1="171.27" x2="99.98" y2="136.351" gradientUnits="userSpaceOnUse" class="svga-on-canvas-chinshadow-gradient-single-0">
      <stop id="SvgjsStop2928" stop-opacity="0.8" stop-color="#e4b3ab" offset="0"/>
      <stop id="SvgjsStop2929" stop-opacity="1" stop-color="#c5796d" offset="0.7"/>
    </linearGradient>
    <radialGradient id="SvgjsRadialGradient3044" cx="-558.588" cy="-490.918" r="84.646" gradientTransform="matrix(0.096 -0.0248 0.0245 0.0961 140.5478 120.3577)" gradientUnits="userSpaceOnUse" class="svga-on-canvas-eyesiris-gradient-left-1">
      <stop id="SvgjsStop3045" stop-opacity="0.8" stop-color="#ffffff" offset="0"/>
      <stop id="SvgjsStop3046" stop-opacity="0" stop-color="#ffffff" offset="1"/>
    </radialGradient>
    <radialGradient id="SvgjsRadialGradient3048" cx="-565.337" cy="-492.691" r="84.644" gradientTransform="matrix(0.0991 8.856325e-004 -0.0011 0.0991 130.3774 136.3533)" gradientUnits="userSpaceOnUse" class="svga-on-canvas-eyesiris-gradient-left-2">
      <stop id="SvgjsStop3049" stop-opacity="0.8" stop-color="#ffffff" offset="0"/>
      <stop id="SvgjsStop3050" stop-opacity="0" stop-color="#ffffff" offset="1"/>
    </radialGradient>
    <linearGradient id="SvgjsLinearGradient3054" x1="122.283" y1="93.047" x2="123.61" y2="91.466" gradientTransform="matrix(1 0 0 1 -52 0)" gradientUnits="userSpaceOnUse" class="svga-on-canvas-eyesiris-gradient-left-5">
      <stop id="SvgjsStop3055" stop-opacity="1" stop-color="#ffffff" offset="0"/>
      <stop id="SvgjsStop3056" stop-opacity="0" stop-color="#ffffff" offset="1"/>
    </linearGradient>
    <linearGradient id="SvgjsLinearGradient3058" x1="127" y1="85" x2="125" y2="87" gradientTransform="matrix(1 0 0 1 -50 0)" gradientUnits="userSpaceOnUse" class="svga-on-canvas-eyesiris-gradient-left-6">
      <stop id="SvgjsStop3059" stop-opacity="1" stop-color="#ffffff" offset="0"/>
      <stop id="SvgjsStop3060" stop-opacity="0" stop-color="#ffffff" offset="1"/>
    </linearGradient>
    <linearGradient id="SvgjsLinearGradient3062" x1="130" y1="81" x2="126" y2="85" gradientTransform="matrix(1 0 0 1 -50 0)" gradientUnits="userSpaceOnUse" class="svga-on-canvas-eyesiris-gradient-left-7">
      <stop id="SvgjsStop3063" stop-opacity="1" stop-color="#ffffff" offset="0"/>
      <stop id="SvgjsStop3064" stop-opacity="0" stop-color="#ffffff" offset="1"/>
    </linearGradient>
    <radialGradient id="SvgjsRadialGradient3067" cx="-578.76" cy="-490.73" r="84.646" gradientTransform="matrix(0.096 -0.0248 0.0245 0.0961 192.4794 119.8404)" gradientUnits="userSpaceOnUse" class="svga-on-canvas-eyesiris-gradient-right-1">
      <stop id="SvgjsStop3068" stop-opacity="0.8" stop-color="#ffffff" offset="0"/>
      <stop id="SvgjsStop3069" stop-opacity="0" stop-color="#ffffff" offset="1"/>
    </radialGradient>
    <radialGradient id="SvgjsRadialGradient3071" cx="-584.778" cy="-487.329" r="84.644" gradientTransform="matrix(0.0991 8.856325e-004 -0.0011 0.0991 182.3104 135.839)" gradientUnits="userSpaceOnUse" class="svga-on-canvas-eyesiris-gradient-right-2">
      <stop id="SvgjsStop3072" stop-opacity="0.8" stop-color="#ffffff" offset="0"/>
      <stop id="SvgjsStop3073" stop-opacity="0" stop-color="#ffffff" offset="1"/>
    </radialGradient>
    <linearGradient id="SvgjsLinearGradient3077" x1="120.284" y1="93.047" x2="121.611" y2="91.467" gradientUnits="userSpaceOnUse" class="svga-on-canvas-eyesiris-gradient-right-5">
      <stop id="SvgjsStop3078" stop-opacity="1" stop-color="#ffffff" offset="0"/>
      <stop id="SvgjsStop3079" stop-opacity="0" stop-color="#ffffff" offset="1"/>
    </linearGradient>
    <linearGradient id="SvgjsLinearGradient3081" x1="127" y1="85" x2="125" y2="87" gradientUnits="userSpaceOnUse" class="svga-on-canvas-eyesiris-gradient-right-6">
      <stop id="SvgjsStop3082" stop-opacity="1" stop-color="#ffffff" offset="0"/>
      <stop id="SvgjsStop3083" stop-opacity="0" stop-color="#ffffff" offset="1"/>
    </linearGradient>
    <linearGradient id="SvgjsLinearGradient3085" x1="130" y1="81" x2="126" y2="85" gradientUnits="userSpaceOnUse" class="svga-on-canvas-eyesiris-gradient-right-7">
      <stop id="SvgjsStop3086" stop-opacity="1" stop-color="#ffffff" offset="0"/>
      <stop id="SvgjsStop3087" stop-opacity="0" stop-color="#ffffff" offset="1"/>
    </linearGradient>
    <radialGradient id="SvgjsRadialGradient3222" cx="126.403" cy="87.57" r="15.179" gradientTransform="matrix(-0.9148 0.0479 0.0523 0.9986 184.4314 -6.6017)" gradientUnits="userSpaceOnUse" class="svga-on-canvas-eyesback-gradient-left-0">
      <stop id="SvgjsStop3223" stop-opacity="1" stop-color="#ffffff" offset="0"/>
      <stop id="SvgjsStop3224" stop-opacity="1" stop-color="#fdfefe" offset="0.544"/>
      <stop id="SvgjsStop3225" stop-opacity="1" stop-color="#f6f8f9" offset="0.74"/>
      <stop id="SvgjsStop3226" stop-opacity="1" stop-color="#eaeff2" offset="0.879"/>
      <stop id="SvgjsStop3227" stop-opacity="1" stop-color="#d9e3e8" offset="0.992"/>
      <stop id="SvgjsStop3228" stop-opacity="1" stop-color="#d8e2e7" offset="1"/>
    </radialGradient>
    <radialGradient id="SvgjsRadialGradient3230" cx="126.401" cy="87.57" r="15.179" gradientTransform="matrix(0.9148 0.0479 -0.0523 0.9986 15.5691 -6.6017)" gradientUnits="userSpaceOnUse" class="svga-on-canvas-eyesback-gradient-right-0">
      <stop id="SvgjsStop3231" stop-opacity="1" stop-color="#ffffff" offset="0"/>
      <stop id="SvgjsStop3232" stop-opacity="1" stop-color="#fdfefe" offset="0.544"/>
      <stop id="SvgjsStop3233" stop-opacity="1" stop-color="#f6f8f9" offset="0.74"/>
      <stop id="SvgjsStop3234" stop-opacity="1" stop-color="#eaeff2" offset="0.879"/>
      <stop id="SvgjsStop3235" stop-opacity="1" stop-color="#d9e3e8" offset="0.992"/>
      <stop id="SvgjsStop3236" stop-opacity="1" stop-color="#d8e2e7" offset="1"/>
    </radialGradient>
    <radialGradient id="SvgjsRadialGradient3238" cx="126.403" cy="87.57" r="15.179" gradientTransform="matrix(-0.9148 0.0479 0.0523 0.9986 184.4314 -6.6017)" gradientUnits="userSpaceOnUse" class="svga-on-canvas-eyesfront-gradient-left-0">
      <stop id="SvgjsStop3239" stop-opacity="1" stop-color="#ffffff" offset="0"/>
      <stop id="SvgjsStop3240" stop-opacity="1" stop-color="#fdfefe" offset="0.544"/>
      <stop id="SvgjsStop3241" stop-opacity="1" stop-color="#f6f8f9" offset="0.74"/>
      <stop id="SvgjsStop3242" stop-opacity="1" stop-color="#eaeff2" offset="0.879"/>
      <stop id="SvgjsStop3243" stop-opacity="1" stop-color="#d9e3e8" offset="0.992"/>
      <stop id="SvgjsStop3244" stop-opacity="1" stop-color="#d8e2e7" offset="1"/>
    </radialGradient>
    <radialGradient id="SvgjsRadialGradient3248" cx="122.581" cy="83.48" fx="136.229" fy="83.114" r="16.914" gradientTransform="matrix(0.99 0.1411 0.1085 -0.7608 -52.9892 129.6892)" gradientUnits="userSpaceOnUse" class="svga-on-canvas-eyesfront-gradient-left-3">
      <stop id="SvgjsStop3249" stop-opacity="1" stop-color="#e4b3ab" offset="0"/>
      <stop id="SvgjsStop3250" stop-opacity="0.3" stop-color="#e4b3ab" offset="0.7"/>
      <stop id="SvgjsStop3251" stop-opacity="0" stop-color="#f3d4cf" offset="1"/>
    </radialGradient>
    <radialGradient id="SvgjsRadialGradient3253" cx="70.243" cy="108.081" r="29.51" gradientTransform="matrix(1.0336 0 0 1.0336 -1.941 1.8777)" gradientUnits="userSpaceOnUse" class="svga-on-canvas-eyesfront-gradient-left-4">
      <stop id="SvgjsStop3254" stop-opacity="0" stop-color="#000000" offset="0.95"/>
      <stop id="SvgjsStop3255" stop-opacity="0.3" stop-color="#000000" offset="1"/>
    </radialGradient>
    <radialGradient id="SvgjsRadialGradient3259" cx="126.401" cy="87.57" r="15.179" gradientTransform="matrix(0.9148 0.0479 -0.0523 0.9986 15.5691 -6.6017)" gradientUnits="userSpaceOnUse" class="svga-on-canvas-eyesfront-gradient-right-0">
      <stop id="SvgjsStop3260" stop-opacity="1" stop-color="#ffffff" offset="0"/>
      <stop id="SvgjsStop3261" stop-opacity="1" stop-color="#fdfefe" offset="0.544"/>
      <stop id="SvgjsStop3262" stop-opacity="1" stop-color="#f6f8f9" offset="0.74"/>
      <stop id="SvgjsStop3263" stop-opacity="1" stop-color="#eaeff2" offset="0.879"/>
      <stop id="SvgjsStop3264" stop-opacity="1" stop-color="#d9e3e8" offset="0.992"/>
      <stop id="SvgjsStop3265" stop-opacity="1" stop-color="#d8e2e7" offset="1"/>
    </radialGradient>
    <radialGradient id="SvgjsRadialGradient3269" cx="122.581" cy="83.48" fx="136.229" fy="83.114" r="16.914" gradientTransform="matrix(-0.99 0.1411 -0.1085 -0.7608 252.9892 129.6892)" gradientUnits="userSpaceOnUse" class="svga-on-canvas-eyesfront-gradient-right-3">
      <stop id="SvgjsStop3270" stop-opacity="1" stop-color="#e4b3ab" offset="0"/>
      <stop id="SvgjsStop3271" stop-opacity="0.3" stop-color="#e4b3ab" offset="0.7"/>
      <stop id="SvgjsStop3272" stop-opacity="0" stop-color="#f3d4cf" offset="1"/>
    </radialGradient>
    <radialGradient id="SvgjsRadialGradient3274" cx="70.243" cy="108.081" r="29.509" gradientTransform="matrix(-1.0336 0 0 1.0336 201.941 1.8777)" gradientUnits="userSpaceOnUse" class="svga-on-canvas-eyesfront-gradient-right-4">
      <stop id="SvgjsStop3275" stop-opacity="0" stop-color="#000000" offset="0.95"/>
      <stop id="SvgjsStop3276" stop-opacity="0.3" stop-color="#000000" offset="1"/>
    </radialGradient>
    <radialGradient id="SvgjsRadialGradient3343" cx="100" cy="100" r="150" gradientUnits="userSpaceOnUse" class="svga-on-canvas-backs-gradient-single-1">
      <stop id="SvgjsStop3344" stop-opacity="0" stop-color="#ecf0f1" offset="0"/>
      <stop id="SvgjsStop3345" stop-opacity="1" stop-color="#c6dce2" offset="0.2"/>
      <stop id="SvgjsStop3346" stop-opacity="0" stop-color="#c6dce2" offset="1"/>
    </radialGradient>
  </defs>
  <g id="svga-group-wrapper">
    <g id="svga-group-backs-single">
      <path id="SvgjsPath3347" d="M225,225H-25V-25h250V225z" fill="#ecf0f1" stroke-width="none" opacity="1"/>
      <path id="SvgjsPath3348" d="M55.036,79.068h-29v-26h29V79.068z M84.203,33H43.536v33.068h40.667V33z M63.869,99.999H100V56.401H63.869V99.999z M76.869,95.734H40.536v31.333h36.333V95.734z M175.536,13.401H126v56.667h49.536V13.401z M119.536,39.068h-12v14h12V39.068z M155.818-4.266h-48.282v28.667h48.282V-4.266z M100,5.734H74v36h26V5.734z M40.536,8.401h-14.5v15.333h14.5V8.401z M21.171,33H-1.246v34.434h22.417V33z M47.536,99.999H8.203v43.735h39.333V99.999z M26.036,173.734h44.167v-26H26.036V173.734z M131.536,163.734H100.5v22.667h31.037V163.734z M206.792,141.067h-28.718v34h28.718V141.067z M159.536,156.491h-24.667v22.667h24.667V156.491z M183.178,111.733h-35.975v40.668h35.975V111.733z M192.202,181.734h-44.999v29.333h44.999V181.734z M43.536,163.734H-5.262v44h48.797V163.734z M202.869,53.068h-33.166v26h33.166V53.068z M183.178,90.401h-14.359v14.835h14.359V90.401z M-5.262,118h27.339V79.299H-5.262V118z M33.493-5.599l-49.291,1.333V33h49.291V-5.599z M211.536-4.266h-32v40.667h32V-4.266z M61-8.266H47.536v29.333H61V-8.266z M208.869,97.818h-32.871v26.667h32.871V97.818z" fill="#c6dce2" stroke="#f9f9f9" stroke-width="0.5" opacity="1"/>
    </g>
    <g id="svga-group-humanwrap-move" transform="matrix(1,0,0,1,0,0)">
      <g id="svga-group-humanwrap" transform="matrix(1,0,0,1,0,0)">
        <g id="svga-group-hair-back-move" transform="matrix(1,0,0,1,0,0)">
          <g id="svga-group-hair-back" transform="matrix(1,0,0,1,0,0)">
            <path id="SvgjsPath3299" d="M160 24.999H40c0 0-1 193.284-1 199h123L160 24.999z" fill="#31221f" stroke-width="none" opacity="1" stroke="none"/>
          </g>
        </g>
        <g id="svga-group-humanbody-single">
          <path id="SvgjsPath2777" d="M190.858 199.866c-6.008-10.158-13.474-11.973-19.628-13.936 -6.323-2.016-19.346-3.178-26.449-4.6 -6.86-1.373-23.153-5.789-23.339-13.488 -0.192-8.066 4.291-40.09 4.291-40.09H74.005c0 0 4.487 32.023 4.294 40.09 -0.184 7.699-16.48 12.115-23.341 13.488 -7.104 1.422-20.125 2.584-26.448 4.6 -6.156 1.963-13.624 3.777-19.632 13.936 -3.644 6.16-6.008 16.133-6.008 27.133h194C196.869 215.999 194.509 206.026 190.858 199.866z" fill="#f3d4cf" stroke-width="none" opacity="1" stroke="none"/>
          <path id="SvgjsPath2778" d="M121.442 167.843c2.495 10.929 18.165 13.698 26.293 15.325 21.909 4.379 33.772 5.134 42.297 19.539 2.903 4.916 5.459 15.864 5.962 24.153 1.835 0.291 0.531-17.432-5.136-26.994 -9.742-16.472-29.089-15.135-46.077-18.535C137.921 179.958 121.628 175.542 121.442 167.843L121.442 167.843zM78.558 167.843c-0.186 7.699-16.479 12.115-23.339 13.488 -16.988 3.4-36.335 2.063-46.077 18.535 -5.667 9.563-6.971 27.285-5.136 26.994 0.503-8.289 3.059-19.237 5.962-24.153 8.524-14.405 20.388-15.16 42.297-19.539C60.393 181.541 76.063 178.771 78.558 167.843L78.558 167.843z" fill="#fff4f3" stroke-width="none" opacity="1" stroke="none"/>
          <path id="SvgjsPath2779" d="M51.206 189.513c0 0 28.641 0.299 33.473 1.885 2.314 0.758 8.372 5.633 8.372 5.633s-6.556-3.17-8.658-3.758C79.51 191.909 51.206 189.513 51.206 189.513zM99.795 199.999c2.053-0.041 7.887-3.799 7.887-3.799s-5.574 2.059-7.342 2.16c-1.491 0.086-6.366-1.238-6.366-1.238S98.112 200.032 99.795 199.999zM117.008 192.757c6.75-1.818 29.786-3.23 29.786-3.23s-23.791-0.516-30.51 1.725c-2.252 0.752-7.562 5.16-7.562 5.16S114.786 193.354 117.008 192.757z" fill="#e4b3ab" stroke-width="none" opacity="1" stroke="none"/>
          <path id="SvgjsPath2780" d="M190.858 199.866c-9.741-16.471-29.122-15.142-46.077-18.535 -6.86-1.373-23.153-5.789-23.339-13.488 -0.192-8.066 4.291-40.09 4.291-40.09H74.005c0 0 4.487 32.023 4.294 40.09 -0.184 7.699-16.48 12.115-23.341 13.488 -7.104 1.422-20.125 2.584-26.448 4.6 -6.156 1.963-13.624 3.777-19.632 13.936 -3.644 6.16-6.008 16.133-6.008 27.133h194C196.869 215.999 194.509 206.026 190.858 199.866z" fill="none" stroke="#c5796d" stroke-width="1.5" opacity="1"/>
        </g>
        <g id="svga-group-chinshadow-single">
          <path id="SvgjsPath2926" d="M100.021 171.27c5.607-0.009 13.53-3.627 20.967-8.478 0.485-6.84 1.756-17.341 2.758-25.098 -13.972-1.825-33.828-1.785-47.741 0.101 0.995 7.702 2.249 18.065 2.739 24.877C86.278 167.593 94.344 171.279 100.021 171.27z" fill="url(#SvgjsLinearGradient2927)" opacity="1"/>
        </g>
        <g id="svga-group-clothes-single">
          <path id="SvgjsPath3308" d="M1.509 238.026c0.211-43.783 8.946-50.671 43.101-55.823 13.099-1.976 25.278-3.824 31.798-13.197 -1.371-1.441-1.8-3.341-0.473-4.779 -0.706-1.084-0.696-3.223 1.426-3.401 0.198 1.43-0.4 0.875 2.776 2.219 19.874 8.397 27.911 4.119 39.35 0.265 2.39-0.809 2.695-0.969 2.955-2.997 0.506 0.199 0.846 0.559 0.891 0.712 0.56 0.894-0.327 2.033-0.483 2.944 1.049 1.008 0.442 2.331-0.431 3.502 15.514 25.709 65.877 1.542 74.242 44.425 1.391 12.381 1.61 25.702 1.626 26.956C197.287 238.851 66.557 239.192 1.509 238.026z" fill="#92002a" stroke-width="none" opacity="1"/>
          <path id="SvgjsPath3309" d="M191.032 202.707c5.877 8.853 4.81 18.807 6.837 24.292 0-11-2.36-20.973-6.011-27.133 -9.742-16.472-26.089-14.936-43.077-18.336 -16.079-3.218-21.88-6.521-25.599-12.503C135.104 189.31 175.119 178.735 191.032 202.707zM76.817 169.027c-3.719 5.981-9.52 9.285-25.599 12.503 -16.988 3.4-33.335 1.864-43.077 18.336 -3.65 6.16-6.011 16.133-6.011 27.133 2.027-5.485 0.96-15.439 6.837-24.292C24.881 178.735 64.896 189.31 76.817 169.027z" fill="#a1103a" stroke-width="none" opacity="1"/>
          <path id="SvgjsPath3310" d="M75.177 165.438c-2.58 9.201 40.672 8.591 30.123 8.857C96.484 174.524 72.865 172.321 75.177 165.438zM111.789 173.288c10.395-3.424 11.681-7.793 11.681-7.793 -0.05 0.053-0.198 0.512-0.668 0.945 -0.907 0.995-10.79 6.722-12.128 7.167C110.674 173.607 111.118 173.52 111.789 173.288zM105.973 171.604c14.206-1.792 16.845-7.246 16.845-7.246 -4.313 6.62-29.991 10.398-46.95-0.03C83.98 170.032 94.415 173.021 105.973 171.604z" fill="#830026" stroke-width="none" opacity="1"/>
          <path id="SvgjsPath3311" d="M196.759 211.875c-8.383-42.978-59.187-18.908-74.22-44.399 0.885-1.192 1.451-2.551 0.38-3.58 0.405-0.852 1.035-2.112 0.51-2.9 -0.061-0.205-0.485-0.629-1.069-0.819l-0.061 0.46c0 0 0 0 0.001 0 -0.278 2.326-1.229 1.798-5.961 3.72 -18.553 7.739-31.947 0.168-38.58-2.399 -0.25-0.07-0.261-0.64-0.261-1.008 -0.002 0.003-0.014 0.005-0.018 0.007l-0.033-0.235c-0.613 0.026-1.382 0.307-1.728 0.886 0 0.01-0.01 0.01-0.01 0.02 -0.357 0.559-0.442 1.75 0.1 2.591 -1.129 1.227-1.058 3.197 0.47 4.8 -15.166 21.719-62.593 2.866-72.31 39.14 -2.093 9.049-2.56 28.104-2.56 29.97 0 0 62.375 1.143 196.89 0.82 0.03-0.01 0.061-0.01 0.09 0C198.389 237.945 198.151 224.264 196.759 211.875zM1.519 237.766c0.27-5.87 0.85-15.73 2.22-25.79 9.012-40.5 55.892-18.97 72.77-42.73 5.653 5.751 24.777 6.521 31.05 4.851 -9.29 1.206-36.968-2.302-31.61-9.7 0.315 0.445 1.567 1.588 2.135 1.629 -0.039 0.077 0.044-0.082 0.002-0.004 -0.227-0.319-1.636-1.794-1.727-2.025 -0.338-0.42-0.451-1.741-0.17-2.21 0.144-0.283 0.475-0.453 0.774-0.562 0.359 2.418-0.533 1.245 7.996 4.361 19.91 7.275 28.574 0.224 35.76-2.25 1.653-0.534 1.917-1.917 1.959-2.43 0.063 0.048 0.118 0.095 0.132 0.14 0.643 0.79 0.121 1.876-0.19 2.841 -0.01 0.01-0.01 0.029-0.02 0.04 -0.213 0.564-0.601 1.341-0.949 1.841 0.569-0.422 0.846-1.043 1.148-1.621 2.183 2.98-8.034 7.582-11.37 9.25 1.98-0.792 7.546-1.585 10.921-5.69 16.262 27.701 70.326-0.145 74.72 52.261 0.903 10.771 0.804 9.778 1.22 18.81C95.539 237.251 111.997 237.184 1.519 237.766z" fill="#64001d" stroke-width="none" opacity="1"/>
        </g>
        <g id="svga-group-head" transform="matrix(1,0,0,1,0,0)">
          <g id="svga-group-ears-left-move" transform="matrix(1,0,0,1,0,0)" style="">
            <g id="svga-group-ears-left" transform="matrix(1,0,0,1,0,0)">
              <path id="SvgjsPath2790" d="M47.001 83.974c-1.376-2.313-5.638-7.997-9.98-6.603 -2.749 0.882-3.293 3.765-3.735 6.311 -0.588 3.386 0.471 10.083 1.389 12.503 0.881 2.325 3.533 6.816 5.264 8.527 2.13 2.1 4.775 8.793 5.194 9.487 0.66 1.097 1.536 2.745 4.122 2.538 2.853-0.229 4.584-1.742 5.856-1.999C58.253 114.109 50.582 89.995 47.001 83.974z" fill="#f3d4cf" stroke="#c5796d" stroke-width="1.5" opacity="1"/>
              <path id="SvgjsPath2791" d="M44.197 97.997c-0.132-0.548 0.007-1.47 0.142-2.362 0.124-0.812 0.24-1.579 0.169-2.121 -0.267-2.032-1.773-5.893-2.757-7.985 -1.132-2.407-2.963-5.439-5.262-6.221 -0.95-0.324-1.575 0.063-1.938 0.456 -0.266 0.289-0.325 0.627-0.238 0.667 0.086 0.04 0.285-0.24 0.572-0.504 0.235-0.216 0.579-0.402 1.051-0.363 -0.19 1.011-1.167 6.49-0.744 10.225 0.333 2.938 1.593 5.131 1.79 5.46 0.029 0.346 0.077 0.685 0.148 1.014 0.929 4.287 4.971 9.163 6.378 10.758 0.259 0.295 0.531 0.47 0.598 0.398 0.066-0.072-0.094-0.364-0.353-0.66 -1.388-1.585-5.391-6.442-6.289-10.579 -0.952-4.389 2.318-10.896 3.048-12.272 0.371 0.646 0.687 1.267 0.93 1.785 0.19 0.406 0.402 0.881 0.619 1.395 -0.429 0.718-3.434 5.958-2.338 10.153 0.406 1.546 2.235 3.54 3.447 4.086 0.667 0.301 0.919 0.75 1.209 1.271 0.336 0.604 0.718 1.288 1.828 1.784 0.225 0.102 0.429 0.142 0.61 0.142 0.313 0 0.551-0.126 0.725-0.276 0.018 0.266 0.017 0.604 0.009 0.917 -0.012 0.404 0.042 0.737 0.137 0.745 0.094 0.008 0.196-0.313 0.207-0.717 0.016-0.496 0.013-1.11-0.072-1.403 -0.248-0.865-1.008-1.841-1.813-2.875C45.221 99.896 44.403 98.844 44.197 97.997zM36.95 94.196c-2.177-6.731 0.656-12.54 1.144-13.464 0.85 0.775 1.6 1.811 2.21 2.824C39.86 84.365 37.041 89.669 36.95 94.196zM46.341 104.042c-1.004-0.447-1.339-1.051-1.666-1.633 -0.293-0.527-0.598-1.072-1.369-1.42 -0.168-0.075-0.352-0.191-0.542-0.323 -2.486-5.906 0.272-8.488 0.963-9.017 0.211 0.722 0.369 1.384 0.439 1.915 0.063 0.488-0.052 1.263-0.167 2.012 -0.142 0.929-0.286 1.89-0.137 2.512 0.226 0.926 1.069 2.009 1.884 3.057 0.723 0.929 1.466 1.888 1.721 2.67C47.359 103.972 47.017 104.345 46.341 104.042z" fill="#c5796d" stroke-width="none" opacity="1" stroke="none"/>
            </g>
          </g>
          <g id="svga-group-ears-right-move" transform="matrix(1,0,0,1,0,0)" style="">
            <g id="svga-group-ears-right" transform="matrix(1,0,0,1,0,0)">
              <path id="SvgjsPath2792" d="M152.736 83.974c1.377-2.313 5.639-7.997 9.98-6.603 2.75 0.882 3.293 3.765 3.736 6.311 0.588 3.386-0.471 10.083-1.389 12.503 -0.881 2.325-3.533 6.816-5.266 8.527 -2.129 2.1-4.775 8.793-5.193 9.487 -0.658 1.097-1.535 2.745-4.121 2.538 -2.854-0.229-4.584-1.742-5.857-1.999C141.484 114.109 149.156 89.995 152.736 83.974z" fill="#f3d4cf" stroke="#c5796d" stroke-width="1.5" opacity="1"/>
              <path id="SvgjsPath2793" d="M153.727 100.913c-0.805 1.033-1.564 2.009-1.813 2.875 -0.086 0.293-0.088 0.907-0.072 1.403 0.012 0.404 0.113 0.725 0.207 0.717s0.148-0.341 0.137-0.745c-0.008-0.313-0.008-0.651 0.01-0.917 0.174 0.15 0.412 0.276 0.725 0.276 0.182 0 0.385-0.04 0.609-0.142 1.109-0.496 1.492-1.18 1.828-1.784 0.289-0.52 0.543-0.969 1.209-1.271 1.213-0.546 3.041-2.54 3.447-4.086 1.096-4.194-1.908-9.435-2.338-10.153 0.217-0.513 0.43-0.988 0.619-1.395 0.244-0.518 0.559-1.139 0.93-1.785 0.73 1.377 4 7.883 3.049 12.272 -0.896 4.137-4.9 8.994-6.289 10.579 -0.258 0.296-0.418 0.588-0.352 0.66 0.066 0.071 0.338-0.104 0.598-0.398 1.406-1.596 5.449-6.471 6.379-10.758 0.07-0.329 0.117-0.668 0.146-1.014 0.197-0.329 1.459-2.523 1.791-5.46 0.422-3.735-0.555-9.214-0.744-10.225 0.473-0.039 0.814 0.146 1.051 0.363 0.287 0.264 0.486 0.544 0.572 0.504s0.027-0.378-0.238-0.667c-0.363-0.393-0.988-0.779-1.938-0.456 -2.299 0.782-4.131 3.814-5.262 6.221 -0.984 2.093-2.49 5.953-2.758 7.985 -0.072 0.542 0.045 1.309 0.17 2.121 0.135 0.892 0.273 1.814 0.141 2.362C155.336 98.844 154.518 99.896 153.727 100.913zM159.434 83.555c0.611-1.013 1.361-2.049 2.211-2.824 0.488 0.925 3.32 6.733 1.145 13.464C162.697 89.669 159.879 84.365 159.434 83.555zM152.27 103.816c0.254-0.782 0.998-1.741 1.721-2.67 0.816-1.048 1.658-2.131 1.885-3.057 0.148-0.622 0.004-1.583-0.137-2.512 -0.115-0.749-0.23-1.524-0.166-2.012 0.068-0.531 0.227-1.193 0.438-1.915 0.691 0.529 3.449 3.111 0.965 9.017 -0.191 0.132-0.375 0.248-0.543 0.323 -0.771 0.348-1.074 0.893-1.369 1.42 -0.326 0.582-0.662 1.186-1.666 1.633C152.721 104.345 152.379 103.972 152.27 103.816z" fill="#c5796d" stroke-width="none" opacity="1" stroke="none"/>
            </g>
          </g>
          <g id="svga-group-faceshape-wrap" transform="matrix(1,0,0,1,0,0)">
            <g id="svga-group-faceshape-single">
              <path id="SvgjsPath2923" d="M158.785 76.762l-0.005 0c-0.012 0.053-10.717 44.373-18.919 56.95 -6.452 9.895-28.166 25.54-39.84 25.558 -11.671 0.02-33.437-15.559-39.918-25.433C51.861 121.285 41.017 77 41.005 76.946h-0.001c-1.298-4.911-1.994-10.066-2.002-15.382C38.949 28.09 66.155 0.919 99.773 0.867c33.621-0.052 60.913 27.033 60.964 60.507C160.746 66.69 160.068 71.846 158.785 76.762z" fill="#f3d4cf" stroke-width="none" opacity="1" stroke="none"/>
              <path id="SvgjsPath2924" d="M125.766 6.622c19.104 10.248 32.075 30.355 32.039 53.476 -0.009 5.316-0.704 10.471-2.003 15.382h-0.001c-0.012 0.053-10.856 44.339-19.099 56.891 -5.946 9.061-24.555 25.121-36.833 25.121 -12.279 0-30.886-16.061-36.833-25.121 -8.242-12.552-19.086-56.837-19.098-56.891h-0.001c-1.298-4.911-1.994-10.066-2.002-15.382C41.898 36.977 54.87 16.87 73.972 6.622 53.277 16.324 38.963 37.28 39.001 61.564c0.008 5.316 0.704 10.471 2.002 15.382h0.001c0.012 0.053 10.856 44.339 19.098 56.891 4.416 6.728 15.922 16.095 26.5 21.382 -0.529-0.226-1.062-0.466-1.599-0.717 5.408 2.875 10.664 4.763 14.713 4.768 0.049 0 0.103-0.005 0.152-0.005s0.103 0.005 0.152 0.005c4.049-0.005 9.305-1.893 14.714-4.768 -0.538 0.253-1.071 0.491-1.601 0.718 10.577-5.287 22.085-14.655 26.501-21.383 8.242-12.552 19.087-56.837 19.098-56.891h0.002c1.298-4.911 1.994-10.066 2.002-15.382C160.775 37.28 146.462 16.324 125.766 6.622z" fill="#ebc3bd" stroke-width="none" opacity="1" stroke="none"/>
              <path id="SvgjsPath2925" d="M158.785 76.762l-0.005 0c-0.012 0.053-10.717 44.373-18.919 56.95 -6.452 9.895-28.166 25.54-39.84 25.558 -11.671 0.02-33.437-15.559-39.918-25.433C51.861 121.285 41.017 77 41.005 76.946h-0.001c-1.298-4.911-1.994-10.066-2.002-15.382C38.949 28.09 66.155 0.919 99.773 0.867c33.621-0.052 60.913 27.033 60.964 60.507C160.746 66.69 160.068 71.846 158.785 76.762z" fill="none" stroke="#c5796d" stroke-width="1.5" opacity="1"/>
            </g>
          </g>
          <g id="svga-group-mouth-single-move" transform="matrix(1,0,0,1,0,0)">
            <g id="svga-group-mouth-single" transform="matrix(1,0,0,1,0,0)">
              <path id="SvgjsPath2898" d="M100.002 141.435c-4.158 0-5.133-3.232-5.133-3.232h10.267C105.136 138.202 103.659 141.435 100.002 141.435z" fill="url(#SvgjsLinearGradient2899)" opacity="1"/>
              <path id="SvgjsPath2902" d="M87.536 132.96c2.756-0.951 6.239-3.625 8.432-3.723 1.133-0.051 2.351 0.87 3.574 1.166 0.851 0.207 3.264-1.156 4.13-1.166 2.272-0.022 6.326 2.771 8.769 3.723 0.135 0.055 0 0 0 0s-5.056 6.021-12.452 6.021C91.618 138.98 87.536 132.96 87.536 132.96S87.399 133.01 87.536 132.96z" fill="#f771a9" stroke="#e85391" stroke-width="0.75" opacity="1"/>
              <path id="SvgjsPath2903" d="M112.808 132.902c-0.187-0.076-0.606-0.028-0.753-0.021 -0.304 0.016-0.546-0.117-1.214-0.129 -0.742-0.012-3.945-0.268-5.003-0.338 -2.129-0.143-3.824 0.666-5.848 0.666 -2.025 0-3.868-0.883-5.996-0.74 -1.057 0.072-4.113 0.395-4.857 0.412 -0.663 0.019-0.923 0.133-1.231 0.12 -0.143-0.007-0.595-0.05-0.771 0.05 -0.147 0.086-0.09 0.559 0.027 0.683 0.285 0.298 1.397-0.233 1.959-0.22 0.777 0.017 3.843-0.05 4.917-0.121 2.081-0.142 3.936 0.821 5.952 0.821s3.725-0.889 5.806-0.749c1.071 0.072 4.281 0.064 5.06 0.049 0.563-0.014 1.764 0.449 2.052 0.22C113.043 133.495 112.972 132.969 112.808 132.902z" fill="#c92066" stroke-width="none" opacity="1" stroke="none"/>
              <path id="SvgjsPath2904" d="M99.989 137.439c-3.37 0-6.645-1.154-9.241-3.306 1.307-0.072 2.652-0.277 3.961-0.219 1.613 0.07 3.144 0.705 4.756 0.813 1.742 0.116 3.358-0.488 5.064-0.695 1.422-0.171 2.931 0.059 4.357 0.111C106.335 136.101 103.244 137.439 99.989 137.439zM104.78 131.682c1.313-0.08 2.661 0.088 3.974 0.141 -1.43-0.712-2.953-1.553-4.549-1.807 -1.374-0.218-2.71 0.882-4.045 1.104 -1.506 0.25-2.69-1.15-4.16-1.15 -1.592 0.07-3.198 1.099-4.576 1.805 1.282-0.076 2.6-0.263 3.884-0.141 1.572 0.147 3.094 0.714 4.682 0.714C101.612 132.348 103.161 131.78 104.78 131.682z" fill="#ff8ebd" stroke-width="none" opacity="1" stroke="none"/>
              <path id="SvgjsPath2905" d="M99.941 136.486c-2.029 0-4.007-0.701-5.707-2.001 0.38-0.037 0.764-0.066 1.133-0.066 0.117 0 0.234 0.003 0.351 0.009 0.609 0.033 1.209 0.208 1.846 0.394 0.618 0.178 1.256 0.363 1.923 0.419 0.132 0.012 0.264 0.016 0.395 0.016 0.819 0 1.596-0.204 2.348-0.399 0.477-0.126 0.928-0.245 1.392-0.313 0.253-0.04 0.527-0.058 0.837-0.058 0.268 0 0.544 0.014 0.818 0.034C103.862 135.572 102.03 136.486 99.941 136.486z" fill="#ffa8cc" stroke-width="none" opacity="1" stroke="none"/>
            </g>
          </g>
          <g id="svga-group-eyes-left-move" transform="matrix(1,0,0,1,0,0)">
            <g id="svga-group-eyes-left" transform="matrix(1,0,0,1,0,0)">
              <g id="svga-group-eyesback-left">
                <path id="SvgjsPath3221" d="M60.632 83.957c1.226-1.179 9.091-2.674 13.631-2.075 7.183 0.947 13 7.285 13 7.285s-4.836 3.083-13.61 3.56C67.873 93.042 62.061 89.309 60.632 83.957z" fill="url(#SvgjsRadialGradient3222)" opacity="1"/>
              </g>
              <g id="svga-group-eyesiriswrapper-left" transform="matrix(1,0,0,1,-1,0.25)">
                <g id="svga-group-eyesiriscontrol-left" transform="matrix(1,0,0,1,0,0)">
                  <g id="svga-group-eyesiris-left" transform="matrix(1,0,0,1,0,0)">
                    <path id="SvgjsPath3285" d="M83.5 87.001c0 4.693-3.806 8.498-8.5 8.498s-8.5-3.805-8.5-8.498c0-4.697 3.806-8.502 8.5-8.502S83.5 82.304 83.5 87.001z" fill="#7b5c33" stroke="#4d3009" stroke-width="0.5" opacity="1"/>
                    <path id="SvgjsPath3286" d="M70.058 90.974c1.241-0.103 0.142-0.434 0.142-0.434 -0.613-0.331-1.768-0.839-1.768-1.306 0-1.461 2.002-1.839-0.048-2.416 -2.13-1.955 1.653-1.914 1.625-1.98 -1.381-3.366 0.423-1.518 1.183-2.512 2.816-3.682 0.785 0.378 2.314 0 0.554-0.136-1.105-2.169 0.048-1.884 0.763 0.187 0.937 0.821 0.937 0.821 0.557-0.109 1.428-0.966 1.428-0.966 1.061 0.32 1.806 1.827 1.478 1.545 0.522-0.063 1.252-0.313 1.822-0.483 0 0 0.1-0.338 0.196-0.047 1.3 3.77 4.652 3.5 0.792 4.589 0 0-0.249 0 0.542 0.627 3.839 3.066-2.978 2.117 0.638 3.527 0.147-0.146-2.167 1.368-2.167 1.787 0 0.71-1.477 2.576-2.757 1.841 -0.714-0.408-0.823 0.85-1.243 0.269 -0.823-1.138-2.467-0.049-1.859-1.095 0.898-0.737-0.926 0.289-1.28 0.289 -1.172 0 1.534-3.942 5.516-1.013 1.165 0.853-1.224-2.03 0.886-2.03 0.211 0.069 0.148-0.739 0.148-0.966 -1.098-0.215 1.969-0.005 1.969-1.788 0.193 0.039 0.721-0.495-2.316 0 0 0-0.097-1.063-0.048-1.256 0.156-0.62 1.72-0.422 1.28-1.063 -0.001-0.001-1.132-2.272-1.132-2.272 -3.645-0.586-1.562-0.952-3.841-0.483 -0.108 0.535-4.881 2.811-4.729 3.866 0.142 0.995 2.997 1.328 0.295 3.091C74.157 96.989 67.118 89.06 70.058 90.974z" fill="#8a6d47" stroke-width="none" opacity="1" stroke="none"/>
                    <path id="SvgjsPath3287" d="M75,79.562l0.243,6.223l2.603-5.656l-2.158,5.84l4.572-4.229l-4.229,4.57l5.842-2.157l-5.655,2.604l6.222,0.242l-6.222,0.242l5.655,2.604l-5.842-2.157l4.229,4.57l-4.572-4.229l2.158,5.84l-2.603-5.656L75,94.437l-0.243-6.223l-2.604,5.656l2.156-5.84l-4.57,4.229l4.229-4.57l-5.842,2.157l5.655-2.604l-6.219-0.242l6.219-0.242l-5.655-2.604l5.842,2.157l-4.229-4.57l4.57,4.229l-2.156-5.84l2.604,5.656L75,79.562z" fill="#7b5c33" stroke="#6c4c22" stroke-width="0.5" opacity="1"/>
                    <path id="SvgjsPath3288" d="M76.128,81.428l-0.764,4.697l2.808-3.841l-2.501,4.047l4.065-2.476l-3.859,2.783l4.702-0.73l-4.632,1.092l4.626,1.125l-4.699-0.762l3.842,2.808l-4.05-2.5l2.476,4.064l-2.783-3.86l0.73,4.702l-1.092-4.632l-1.126,4.625l0.764-4.697l-2.811,3.841l2.504-4.048l-4.064,2.476l3.86-2.783l-4.702,0.73l4.631-1.093l-4.625-1.125l4.697,0.761l-3.842-2.808l4.05,2.5l-2.475-4.064l2.782,3.86l-0.73-4.701l1.095,4.632L76.128,81.428z" fill="#7b5c33" stroke="#5c3d14" stroke-width="0.5" opacity="1"/>
                    <path id="SvgjsPath3289" d="M78.188 87c0 1.761-1.428 3.187-3.188 3.187S71.813 88.76 71.813 87c0-1.76 1.428-3.188 3.188-3.188S78.188 85.239 78.188 87z" fill="#000000" stroke-width="none" opacity="0.9"/>
                    <path id="SvgjsPath3290" d="M71.653 93.108c-0.469 0.469-1.396 0.304-2.069-0.37 -0.674-0.673-0.84-1.6-0.37-2.069 0.469-0.469 1.396-0.304 2.069 0.37S72.123 92.638 71.653 93.108z" fill="#ffffff" stroke-width="none" opacity="0.7"/>
                    <path id="SvgjsPath3291" d="M81.809 85.326c-0.702 0.703-2.404 0.142-3.8-1.255 -1.396-1.396-1.958-3.097-1.255-3.8 0.703-0.703 2.404-0.142 3.8 1.255C81.95 82.922 82.511 84.624 81.809 85.326z" fill="#ffffff" stroke-width="none" opacity="0.9"/>
                  </g>
                </g>
              </g>
              <g id="svga-group-eyesfront-left">
                <path id="SvgjsPath3246" d="M55.332 88c0 13.808 8.06 24.999 18 24.999s18-11.191 18-24.999c0-13.809-8.06-25.001-18-25.001S55.332 74.191 55.332 88zM60.632 83.957c1.226-1.179 9.091-2.674 13.631-2.075 7.183 0.947 13 7.285 13 7.285s-4.836 3.083-13.61 3.56C67.873 93.042 62.061 89.309 60.632 83.957z" fill="#f3d4cf" stroke-width="none" opacity="1"/>
                <path id="SvgjsPath3247" d="M74.182 96.592c9.412 2.223 18.451-1.61 20.194-8.565 1.738-6.956-4.478-14.395-13.892-16.622 -9.414-2.224-18.453 1.609-20.195 8.565C58.55 86.927 64.765 94.365 74.182 96.592zM60.632 83.957c1.226-1.179 9.091-2.674 13.631-2.075 7.183 0.947 13 7.285 13 7.285s-4.836 3.083-13.61 3.56C67.873 93.042 62.061 89.309 60.632 83.957z" fill="url(#SvgjsRadialGradient3248)" opacity="1"/>
                <path id="SvgjsPath3252" d="M60.632 83.957c1.226-1.179 9.091-2.674 13.631-2.075 7.183 0.947 13 7.285 13 7.285s-4.836 3.083-13.61 3.56C67.873 93.042 62.061 89.309 60.632 83.957z" fill="url(#SvgjsRadialGradient3253)" opacity="1"/>
                <path id="SvgjsPath3256" d="M87.433 83.657c-6.502-4.251-4.054-3.09-16.23-6.703 3.344 0.5 9.572 2.066 11.707 3.32C84.073 80.928 86.433 82.783 87.433 83.657z" fill="#c5796d" stroke-width="none" opacity="1"/>
                <path id="SvgjsPath3257" d="M55.34 82.979c0 0 2.084 1.306 3.713 1.307 0.129 0.766 2.241 4.259 5.873 6.344 5.49 3.154 11.897 2.18 18.014 0.643 2.995-0.746 2.81-1.52 7.773-2.07 -3.897-1.57-3.485-2.497-8.891-5.423 2.468 0.471 5.783 2.315 5.783 2.315 -1.237-1.452-9.917-6.796-23.826-7.508 0 0 4.649 1.088 6.399 1.769 -8.05 1.097-10.242-0.113-10.669-0.435 0.357 0.302 1.188 1.24 3.004 1.852 -1.878 0.143-5.312-0.867-5.312-0.867s0.867 0.826 2.628 1.965C58.323 83.595 55.34 82.979 55.34 82.979zM60.632 84.074c1.226-1.137 9.091-2.58 13.631-2.001 7.183 0.913 13 7.026 13 7.026s-4.836 2.974-13.61 3.434C67.873 92.836 62.061 89.236 60.632 84.074z" fill="#000000" stroke-width="none" opacity="1"/>
              </g>
            </g>
          </g>
          <g id="svga-group-eyes-right-move" transform="matrix(1,0,0,1,0,0)">
            <g id="svga-group-eyes-right" transform="matrix(1,0,0,1,0,0)">
              <g id="svga-group-eyesback-right">
                <path id="SvgjsPath3229" d="M139.368 83.957c-1.226-1.179-9.091-2.674-13.631-2.075 -7.183 0.947-13 7.285-13 7.285s4.836 3.083 13.61 3.56C132.127 93.042 137.939 89.309 139.368 83.957z" fill="url(#SvgjsRadialGradient3230)" opacity="1"/>
              </g>
              <g id="svga-group-eyesiriswrapper-right" transform="matrix(1,0,0,1,1,0.25)">
                <g id="svga-group-eyesiriscontrol-right" transform="matrix(1,0,0,1,0,0)">
                  <g id="svga-group-eyesiris-right" transform="matrix(1,0,0,1,0,0)">
                    <path id="SvgjsPath3292" d="M133.5 87.001c0 4.692-3.806 8.498-8.5 8.498s-8.5-3.806-8.5-8.498c0-4.697 3.806-8.502 8.5-8.502S133.5 82.304 133.5 87.001z" fill="#7b5c33" stroke="#4d3009" stroke-width="0.5" opacity="1"/>
                    <path id="SvgjsPath3293" d="M120.059 90.974c1.24-0.103 0.142-0.434 0.142-0.434 -0.613-0.33-1.768-0.838-1.768-1.305 0-1.461 2.002-1.84-0.048-2.416 -2.131-1.956 1.652-1.915 1.625-1.981 -1.382-3.366 0.423-1.518 1.182-2.512 2.816-3.682 0.785 0.378 2.314 0 0.555-0.136-1.104-2.169 0.048-1.884 0.763 0.186 0.938 0.821 0.938 0.821 0.557-0.109 1.428-0.966 1.428-0.966 1.061 0.32 1.806 1.828 1.478 1.546 0.521-0.063 1.252-0.313 1.821-0.483 0 0 0.1-0.338 0.196-0.046 1.3 3.77 4.652 3.499 0.791 4.589 0 0-0.249 0 0.542 0.627 3.84 3.065-2.978 2.117 0.638 3.527 0.148-0.147-2.167 1.367-2.167 1.786 0 0.711-1.477 2.576-2.757 1.842 -0.714-0.409-0.822 0.85-1.243 0.269 -0.823-1.138-2.468-0.049-1.859-1.095 0.898-0.737-0.926 0.288-1.28 0.288 -1.172 0 1.534-3.942 5.516-1.013 1.165 0.854-1.225-2.029 0.886-2.029 0.212 0.069 0.148-0.739 0.148-0.967 -1.097-0.214 1.97-0.004 1.97-1.787 0.193 0.038 0.721-0.496-2.316 0 0 0-0.097-1.064-0.048-1.256 0.156-0.619 1.721-0.422 1.28-1.063 -0.001-0.001-1.133-2.271-1.133-2.271 -3.645-0.587-1.562-0.953-3.84-0.483 -0.108 0.535-4.881 2.811-4.729 3.866 0.142 0.994 2.996 1.328 0.295 3.092C124.157 96.989 117.118 89.06 120.059 90.974z" fill="#8a6d47" stroke-width="none" opacity="1" stroke="none"/>
                    <path id="SvgjsPath3294" d="M125,79.562l0.242,6.222l2.604-5.656l-2.158,5.84l4.571-4.228l-4.229,4.57l5.842-2.157l-5.655,2.604l6.222,0.242l-6.222,0.242l5.655,2.604l-5.842-2.157l4.229,4.57l-4.571-4.228l2.158,5.84l-2.604-5.656L125,94.437l-0.242-6.222l-2.605,5.656l2.157-5.84l-4.57,4.228l4.229-4.57l-5.842,2.157l5.654-2.604l-6.219-0.242l6.219-0.242l-5.654-2.604l5.842,2.157l-4.229-4.57l4.57,4.228l-2.157-5.84l2.605,5.656L125,79.562z" fill="#7b5c33" stroke="#6c4c22" stroke-width="0.5" opacity="1"/>
                    <path id="SvgjsPath3295" d="M126.128,81.428l-0.764,4.697l2.808-3.841l-2.501,4.047l4.064-2.475l-3.859,2.782l4.702-0.73l-4.632,1.093l4.626,1.125l-4.699-0.762l3.843,2.808l-4.05-2.5l2.476,4.063l-2.783-3.86l0.73,4.702l-1.092-4.632l-1.126,4.625l0.764-4.697l-2.812,3.841l2.505-4.047l-4.065,2.475l3.86-2.782l-4.702,0.73l4.631-1.094l-4.624-1.124l4.696,0.761l-3.842-2.808l4.05,2.501l-2.476-4.063l2.782,3.86l-0.73-4.702l1.095,4.632L126.128,81.428z" fill="#7b5c33" stroke="#5c3d14" stroke-width="0.5" opacity="1"/>
                    <path id="SvgjsPath3296" d="M128.188 87c0 1.761-1.428 3.187-3.188 3.187s-3.188-1.426-3.188-3.187c0-1.76 1.428-3.188 3.188-3.188S128.188 85.239 128.188 87z" fill="#000000" stroke-width="none" opacity="0.9"/>
                    <path id="SvgjsPath3297" d="M121.653 93.108c-0.47 0.469-1.396 0.304-2.069-0.369 -0.674-0.673-0.84-1.601-0.369-2.07 0.469-0.47 1.395-0.304 2.068 0.369C121.956 91.712 122.122 92.639 121.653 93.108z" fill="#ffffff" stroke-width="none" opacity="0.7"/>
                    <path id="SvgjsPath3298" d="M131.809 85.326c-0.702 0.703-2.403 0.142-3.8-1.254 -1.396-1.396-1.957-3.098-1.256-3.8 0.703-0.703 2.405-0.142 3.8 1.254C131.949 82.922 132.512 84.624 131.809 85.326z" fill="#ffffff" stroke-width="none" opacity="0.9"/>
                  </g>
                </g>
              </g>
              <g id="svga-group-eyesfront-right">
                <path id="SvgjsPath3267" d="M126.668 62.999c-9.94 0-18 11.193-18 25.001 0 13.808 8.06 24.999 18 24.999s18-11.191 18-24.999C144.668 74.191 136.608 62.999 126.668 62.999zM126.348 92.727c-8.774-0.476-13.61-3.56-13.61-3.56s5.817-6.338 13-7.285c4.54-0.6 12.405 0.896 13.631 2.075C137.939 89.309 132.127 93.042 126.348 92.727z" fill="#f3d4cf" stroke-width="none" opacity="1"/>
                <path id="SvgjsPath3268" d="M139.711 79.971c-1.742-6.956-10.781-10.79-20.195-8.565 -9.414 2.227-15.63 9.666-13.892 16.622 1.743 6.955 10.782 10.788 20.194 8.565C135.235 94.365 141.45 86.927 139.711 79.971zM126.348 92.727c-8.774-0.476-13.61-3.56-13.61-3.56s5.817-6.338 13-7.285c4.54-0.6 12.405 0.896 13.631 2.075C137.939 89.309 132.127 93.042 126.348 92.727z" fill="url(#SvgjsRadialGradient3269)" opacity="1"/>
                <path id="SvgjsPath3273" d="M139.368 83.957c-1.226-1.179-9.091-2.674-13.631-2.075 -7.183 0.947-13 7.285-13 7.285s4.836 3.083 13.61 3.56C132.127 93.042 137.939 89.309 139.368 83.957z" fill="url(#SvgjsRadialGradient3274)" opacity="1"/>
                <path id="SvgjsPath3277" d="M112.567 83.657c6.502-4.251 4.054-3.09 16.23-6.703 -3.344 0.5-9.572 2.066-11.707 3.32C115.927 80.928 113.567 82.783 112.567 83.657z" fill="#c5796d" stroke-width="none" opacity="1"/>
                <path id="SvgjsPath3278" d="M140.17 82.871c1.761-1.139 2.628-1.965 2.628-1.965s-3.434 1.009-5.312 0.867c1.815-0.612 2.646-1.55 3.004-1.852 -0.427 0.321-2.619 1.531-10.669 0.435 1.75-0.681 6.399-1.769 6.399-1.769 -13.909 0.712-22.589 6.056-23.826 7.508 0 0 3.315-1.844 5.783-2.315 -5.405 2.926-4.993 3.854-8.891 5.423 4.964 0.551 4.778 1.325 7.773 2.07 6.116 1.537 12.523 2.511 18.014-0.643 3.632-2.085 5.744-5.579 5.873-6.344 1.629-0.001 3.713-1.307 3.713-1.307S141.677 83.595 140.17 82.871zM126.348 92.533c-8.774-0.459-13.61-3.434-13.61-3.434s5.817-6.113 13-7.026c4.54-0.579 12.405 0.864 13.631 2.001C137.939 89.236 132.127 92.836 126.348 92.533z" fill="#000000" stroke-width="none" opacity="1"/>
              </g>
            </g>
          </g>
          <g id="svga-group-facehighlight-single">
            <path id="SvgjsPath2769" d="M140.204 113.007c0.035 22.275-17.995 40.365-40.273 40.396 -22.274 0.036-40.361-17.993-40.396-40.272C59.501 90.857 77.53 72.77 99.808 72.735 122.083 72.701 140.171 90.73 140.204 113.007z" fill="url(#SvgjsRadialGradient2770)" opacity="1"/>
            <path id="SvgjsPath2773" d="M135,55.999c0,19.329-15.671,35-35,35c-19.329,0-35-15.671-35-35s15.671-35,35-35C119.329,20.999,135,36.67,135,55.999z" fill="url(#SvgjsRadialGradient2774)" opacity="1"/>
          </g>
          <g id="svga-group-eyebrows-left-move" transform="matrix(1,0,0,1,0,0)">
            <g id="svga-group-eyebrows-left-rotate" transform="matrix(1,0,0,1,0,0)">
              <g id="svga-group-eyebrows-left" transform="matrix(1,0,0,1,0,0)">
                <path id="SvgjsPath3279" d="M54.351 74.996c9.743-15.115 36.491 5.148 38.018-1.191 0.299-1.271-0.407-2.015-1.564-2.492C77.184 65.807 59.156 61.18 54.351 74.996z" fill="#2a232b" stroke-width="none" opacity="1"/>
              </g>
            </g>
          </g>
          <g id="svga-group-eyebrows-right-move" transform="matrix(1,0,0,1,0,0)">
            <g id="svga-group-eyebrows-right-rotate" transform="matrix(1,0,0,1,0,0)">
              <g id="svga-group-eyebrows-right" transform="matrix(1,0,0,1,0,0)">
                <path id="SvgjsPath3280" d="M145.649 74.996c-9.743-15.115-36.491 5.148-38.018-1.191 -0.299-1.271 0.407-2.015 1.564-2.492C122.816 65.807 140.844 61.18 145.649 74.996z" fill="#2a232b" stroke-width="none" opacity="1"/>
              </g>
            </g>
          </g>
          <g id="svga-group-nose-single-move" transform="matrix(1,0,0,1,0,0)">
            <g id="svga-group-nose-single" transform="matrix(1,0,0,1,0,0)">
              <path id="SvgjsPath2906" d="M92.281 116.235c-0.745 2.063 5.028 4.289 7.218 4.426 2.374 0.147 9.024-2.899 7.896-4.991 -1.185-2.197-5.63-0.286-7.547-0.286C97.94 115.384 93.276 113.479 92.281 116.235z" fill="#e4b3ab" stroke-width="none" opacity="1" stroke="none"/>
              <path id="SvgjsPath2907" d="M102.207 117.221c-0.243-0.522 1.194-1.333 1.748-1.493 0.777-0.226 2.505 0.238 2.438 0.831 -0.06 0.521-1.603-0.169-2.105-0.022C103.767 116.687 102.435 117.712 102.207 117.221zM95.214 116.742c0.706 0 1.753 0.457 1.945 0.057 0.229-0.479-1.56-1.065-2.086-1 -0.434 0.052-1.991 0.958-1.777 1.338C93.496 117.49 94.284 116.742 95.214 116.742z" fill="#c5796d" stroke-width="none" opacity="1" stroke="none"/>
              <path id="SvgjsPath2908" d="M99.857 113.479c0.669 0 1.807-0.637 1.978-1.9 0.754-5.575-0.521-20.246-1.978-20.246 -1.365 0-2.508 15.024-2.155 20.246C97.789 112.86 99.099 113.479 99.857 113.479" fill="#ffffff" stroke-width="none" opacity="0.2" stroke="none"/>
            </g>
          </g>
          <g id="svga-group-hair-front" transform="matrix(1,0,0,1,0,0)">
            <path id="SvgjsPath3301" d="M44.483 18.786v192.7h39.633c-0.985-7.894-2.345-15.114-3.827-18.896 -7.734-19.635-34.67-24.746-29.979-50.592l0.186-0.036c5.161 11.272 7.599 17.786 19.622 19.774 -16.696-13.644-13.473-26.335-11.147-42.457 1.357-9.407-1.612-16.768-3.584-24.324 2.337-6.986 3.574-13.578 4.833-21.104C71.469 6.622 121.799 9.658 136.22 52.964c9.121 27.391 1.487 36.087 12.741 53.306 0.534 12.012 3.037 24.947-11.378 41.925 -3.168 3.731-7.858 7.637-11.999 10.247 15.048-1.334 23.306-15.722 28.299-29.979l0.183 0.058c-6.601 55.459-31.788 30.36-34.347 82.965h41.151v-192.7H44.483z" fill="#504543" stroke-width="none" opacity="0.1" stroke="none"/>
            <path id="SvgjsPath3302" d="M84.239 24.512c0 0 13.507 2.744 15.441 8.394 -9.837-0.448-14.145-3.676-28.021 1.726C74.877 29.073 84.239 24.512 84.239 24.512zM116.354 23.835c0 0-14.886-0.596-16.673 9.07 9.837-0.448 15.855-4.834 29.83 1.466C127.59 28.832 116.354 23.835 116.354 23.835z" fill="#31221f" stroke-width="none" opacity="1" stroke="none"/>
            <path id="SvgjsPath3303" d="M171.325 103.155c12.474-84.818-28.429-117.88-66.57-108.483C62.686-15.575 30.577 5.914 25.649 64.39c-0.889 20.541 1.352 36.037 1.709 39.729 -2.823 5.811-4.602 12.117-5.334 18.632 -2.28 1.989-4.366 3.558-6.692 5.203 1.216-0.168 3.034-0.383 6.451-1.384 -0.802 22.784 10.506 26.852 9.795 45.72 -0.663 12.739-0.707 13.817 1.769 22.173 6.55 22.107-3.539 20.229-0.849 47.579 31.104-1.338 46.501 4.047 119.532-0.472 1.616-0.101 12.444-0.799 16.533-0.559 -16.247-55.787 11.274-50.916 2.58-79.354C163.35 136.169 184.674 127.674 171.325 103.155zM120.349 232.486c0.313 3.851 0.855 8.563 1.039 9.658 -14.026 0.059-13.942-0.431-36.432-0.219 0.397-13.065 1.519-40.587-1.77-48.975 -8.064-20.475-33.709-27.085-35.086-49.86l0.195-0.036c5.38 11.757 9.681 16.499 22.217 18.573 -17.408-14.226-13.83-25.25-13.383-42.226 0.265-9.903-1.679-17.482-3.736-25.362 2.437-7.282 3.738-14.154 5.041-22.003 5.299-31.981 23.306-56.507 41.03-39.238 0.001-0.001 0.225-0.316 0.225-0.316 0.096 0.134 0.084 0.114 0.202 0.302 15.169-16.919 29.792-2.734 37.781 17.474 11.073 27.991 1.55 37.627 13.281 55.582 0.56 12.526 1.191 25.365-13.838 43.069 -3.304 3.889-7.355 7.003-11.67 9.727 15.688-1.395 25.436-14.789 30.639-29.654l0.191 0.059C141.093 186.96 112.813 144.06 120.349 232.486z" fill="#504543" stroke-width="none" opacity="1" stroke="none"/>
            <path id="SvgjsPath3304" d="M168.564 241.012c-4.089-0.24-14.917 0.458-16.533 0.559 -7.593 0.47-14.551 0.831-20.979 1.104 0.627-18.603-6.242-38.093 2.549-55.675 4.409-9.624 18.398-19 21.398-31 0.559-2.235 1.938-7.965 2.429-12.944 3.441 21.68-17.092 41.785-12.299 63.68 4.266-14.529 12.416-38.893 17.552-49.096 -0.563 16.096-1.812 20.566-1.289 30.668 4.13-9.095 7.526-16.68 5.584-38.498 0 0 2.598 6.715 4.168 11.848C179.839 190.096 152.317 185.225 168.564 241.012zM161.744 152.235c14.178-34.092-4.985-37.232-10.55-59.281C145.21 69.242 145.199 27.485 124 23c-10.773-2.279-19.332 1.04-24.926 9.434 0.13 0.122 0.26 0.239 0.39 0.366 0.001-0.001 0.225-0.316 0.225-0.316 0.096 0.134 0.084 0.114 0.202 0.302 15.169-16.919 29.792-2.734 37.781 17.474 11.073 27.991 1.55 37.627 13.281 55.582 2.666 23.645-7.074 41.159-25.508 52.796 15.263-7.068 28.199-18.51 30.174-46.749l0.398 0.199C161.471 119.218 164.952 140.731 161.744 152.235zM154.398 45c1.833 21.549 4.026 42.923 16.985 58.268 -0.021-0.038-0.038-0.074-0.059-0.112 0.178-1.207 0.604-4.451 0.76-5.638C166.309 90.678 160.708 78.757 159 66c-2.141-15.982 0.07-34.47-15.9-46C150.849 26.708 154.398 36 154.398 45zM69 18C44 33 50.146 61.473 44.146 84c-3.188 11.97-11.551 22.788-20.646 30.744 -0.609 2.384-1.069 4.813-1.377 7.277C60.299 97.473 45.24 48.478 61.199 30.666c11.568-12.911 25.383-17.769 38.489 1.817C96.415 16.706 79 13 69 18zM82.258 25.4c-7.133 1.456-14.761 9.231-18.923 16.342 -6.467 11.048-7.485 28.27-12.653 46.717 -4.4 15.707-13.998 30.571-33.68 39.249 26.759-5.687 35.423-30.752 36.391-33.667 2.437-7.282 3.738-14.154 5.041-22.003 5.26-31.746 23.042-56.139 40.64-39.604C93.415 26.512 90.127 23.793 82.258 25.4zM68.733 161.296c0.579 0.115 1.161 0.229 1.779 0.332 -17.408-14.226-14.13-25.25-13.683-42.226 0.255-9.563-1.65-17.359-3.626-24.951 -0.523 1.394-1.105 2.744-1.716 4.073C60.569 121.579 41.722 142.818 68.733 161.296zM146.702 161.628c9.171-9.346 13.167-29.969 11.369-43.484 -0.817 4.008-1.474 8.073-2.426 12.056 0.149-0.404 0.296-0.81 0.438-1.217l0.191 0.059c-15.183 57.919-43.463 15.019-35.927 103.445 0.313 3.851 0.855 8.563 1.039 9.658 -14.026 0.059-13.942-0.431-36.432-0.219 0.397-13.065 1.519-40.587-1.77-48.975 -7.75-19.678-44.052-31.323-33.378-62.632 -9.689 13.094-4.59 24.13 1.678 31.309 35.12 44.05 24.852 49.003 26.454 81.047 11.177 0.333 30.093 0.525 48.263-0.105C121.536 179.735 127.328 181.371 146.702 161.628zM39.184 142.011c-1.385-4.846 8.584-15.692 5.366-30.735C43.886 121.43 38.638 129.205 36 138c-3.999 33.884 27.286 39.376 14 74 0-13-2.667-19.437-7.667-31.437C42.333 196.563 49 207 41 223c0 0 2.761-11.765 0.26-17.418C32.879 180.272 39.439 170.276 33 154c-2.838-7.69-8.246-14.15-10.878-27.926 0.677 19.739 10.59 29.425 9.958 46.216 -0.663 12.739-1.207 13.817 1.268 22.173 6.55 22.107-3.539 20.229-0.849 47.579 12.221-0.525 22.025-0.014 33.847 0.527 2.261-24.406 5.03-40.444-7.662-60.172C51.814 171.72 37.453 160.703 39.184 142.011zM45 38c-4.149 20.744-5.556 42.857-18.478 58.357 0.366 3.807 0.713 6.488 0.837 7.762 -0.066 0.136-0.124 0.275-0.188 0.411C51.195 67.57 41.09 47.743 50 28c2-5 6.231-8.566 11-14C52.915 20.828 47 27 45 38zM166.623 102.836C155.162 84.076 155.692 61.634 148 38c-4.507-13.846-24.446-39.649-48.506-6.168 11.159-14.396 23.65-15.006 31.307-10.431 6.19 3.699 10.544 10.145 13.544 17.145 7.068 18.138 5.753 34.787 13.753 52.787 5 12 12.048 22.146 12.416 32.828 -0.332 4.575-3.198 15.689-4.698 19.253 0.479-1.376 6.27-12.165 6.27-18.4C172.085 118.144 170.466 109.127 166.623 102.836zM71.522 9.661c3.306-2.748 25.504-5.422 29.751 11.058C98.289 4.859 78.927 5.073 71.522 9.661zM135.429 8.581c3.49 2.642 2.081 1.447-0.513-0.514 -13.694-8.515-27.51-1.497-33.308 12.366C109.649 3.393 126.768 2.02 135.429 8.581zM147.768 15.763c-17.909-25.073-41.461-16.292-47.154-2.327C108.07-2.146 131.988-5.355 147.768 15.763zM47.118 21.915c-2.079 4.494 4.73-15.523 28.092-20.133 8.363-1.692 19.382-0.871 24.746 6.221C91.351-4.505 59.979-4.11 47.118 21.915zM134.716 12.859c1.24 0.864 2.13 1.626 2.078 1.583 -0.177-0.117-1.063-1.067-2.619-2.098 -11.543-7.674-29.75 1.124-33.899 15.082C105.102 13.747 123.645 5.512 134.716 12.859zM65.39 15.566c-3.443 2.883 4.383-2.277 6.732-2.839 8.25-2.126 24.014-0.522 28.82 11.981C96.429 10.93 77.129 7.13 65.39 15.566z" fill="#413230" stroke-width="none" opacity="1" stroke="none"/>
            <path id="SvgjsPath3305" d="M54.287 8.395c-6.063 5.795-8.245 8.121-12.733 15.896C29.969 42.645 29.465 95.483 30.12 75.647 31.003 46.753 33.226 26.926 54.287 8.395zM40.166 46.282c-1.19 10.81 2.133-9.666 3.979-14.112C51.075 15.805 71.717-1.981 91.025 6.798c3.802 1.736 6.471 3.731 7.692 4.555C71.922-9.195 43.586 15.053 40.166 46.282zM140.025 11.352c4.61 4.55 8.293 8.722 8.248 8.671 -3.867-3.539-21.245-34.352-47.079-3.221C113.365 3.41 126.815-1.016 140.025 11.352zM91.268 18.114c5.95 4.151 11.459 11.672 10.709 10.672 -0.251-0.291-1.608-2.192-3.735-4.794C75.559-3.612 50 28.843 47.748 53.002 51.44 28.64 73.278 5.713 91.268 18.114zM148.446 35.102c0.914 2.425 1.39 3.932 1.306 3.63 -0.112-0.292-0.599-2.129-1.518-4.706 -7.781-22.254-29.125-27.144-48.288-4.222C119.501 8.442 139.361 12.269 148.446 35.102zM170.729 89.177c-0.008-0.391 0.217-2.754 0.27-6.182 0.46-22.099-4.53-58.257-22.219-71.904C171.765 31.294 170.628 90.434 170.729 89.177zM160.594 109.636c1.141 1.432 1.838 2.295 1.702 2.122 -6.983-11.994-4.544 1.486-14.992-43.759C151.208 88.03 150.813 97.418 160.594 109.636zM40.224 110.197c-3.71 3.778-2.039 2.239 0.691-0.536C55.243 92.089 52.19 85.149 56.037 63.719 52.939 77.874 52.532 97.469 40.224 110.197zM80.217 24.943c1.441-0.43 2.318-0.692 2.144-0.644 -4.026 1.411-20.332 4.076-24.18 27.199C61.569 36.735 70.158 28.113 80.217 24.943zM143.451 47.042c2.782 8.476-1.829-8.357-4.675-13.598 -5.338-10.289-12.488-12.038-23.153-11.645C133.024 21.025 137.857 30.72 143.451 47.042zM34.274 152.301c2.071 11.298 11.409 25.639 15.081 38.07 1.789 5.938 1.875 6.194-0.112-1.306 -11.232-35.413-21.715-39.51-10.232-69.374C39.011 119.691 30.189 136.554 34.274 152.301zM148.784 189.284c-0.385 2.617-0.607 4.203-0.555 3.89 9.005-39.146 13.987-26.598 11.758-65.936C160.009 171.216 154.996 151.983 148.784 189.284zM46.041 133.496c-8.804 20.717 5.362 28.95 22.507 53.013 3.892 6.425 2.585 4.246 1.648 2.489 -11.499-21.461-31.094-34.2-23.91-53.677 2.383-6.427 3.979-9.329 3.182-22.331C49.611 121.966 49.23 125.986 46.041 133.496zM52.428 119.592c-0.092 12.744-6.549 21.745 6.856 35.309 4.074 3.177-2.931-3.353-4.056-5.359 -2.187-3.878-3.819-8.571-3.37-13.059 0.683-13.909 1.296-1.389 0.912-29.999C52.413 116.792 52.728 110.031 52.428 119.592zM142.67 147.298c-1.671 2.148-4.705 4.313-5.604 6.149 -0.214 0.387 0.542-0.853 1.744-1.979 17.557-16.844 13.72-27.795 16.996-34.761C152.473 123.786 154.94 131.114 142.67 147.298zM126.529 187.542c-2.762 11.25-1.063 15.187-1.063 15.187 -0.185-1-0.322-1.582-0.322-3.37 2.057-31.334 25.247-25.986 31.597-60.146C151.157 167.077 131.887 167.036 126.529 187.542z" fill="#5f5a59" stroke-width="none" opacity="1" stroke="none"/>
            <path id="SvgjsPath3306" d="M171.429 103.136c12.069-85.836-28.95-117.955-66.649-108.561 -63.629-15.205-85.202 40.694-77.51 109.5 -2.854 5.875-4.629 12.232-5.31 18.601 -2.671 2.329-6.03 4.794-7.03 5.43 2.281-0.256 4.492-0.737 6.75-1.4 -0.454 12.987 3.396 20.927 6.94 29.32 6.294 14.887 0.154 21.277 3.39 34.07 1.24 4.85 3.11 9.63 3.55 14.64 0.946 10.766-5.545 16.426-3.15 37.41 0.08 0 0.15-0.01 0.23-0.01 24.692-0.967 13.033-0.165 29.72 0.439 62.103 2.413 88.897-1.46 106.34-1.46 -12.259-39.767-0.309-49.433 3.61-63.05 3.343-11.656-3.539-17.892-3.11-27.43C170.279 131.121 182.242 124.247 171.429 103.136zM69.579 161.266c-11.588-2.079-16.382-8.37-21.42-19.061 -0.284-5.823 1.921-12.104 2.96-17.87 1.044-5.75 0.401-10.896-0.69-22.729 1.12-2.35 2.09-4.77 2.94-7.24 1.57 6.54 3.01 13.15 3.04 19.83C56.463 128.817 50.079 147.932 69.579 161.266zM21.699 126.226c-1.71 0.529-3.46 0.96-5.23 1.27 41.837-27.209 31.729-67.088 39.07-85.77 7.243-18.434 27.63-33.995 44.1-9.15 -0.06 0.08-0.109 0.15-0.16 0.23 -17.355-18.325-36.108 8.93-40.729 31.36 -4.49 21.877-6.914 51.458-35.12 61.41C23.629 125.575 21.699 126.205 21.699 126.226zM32.619 241.855c-0.543-9.458-0.846-11.33 0.73-18.64 1.28-5.961 3.59-12.12 3.23-18.271 -0.39-6.41-3.11-12.39-3.89-18.74 -0.75-6.14 0.5-12.31 0.53-18.46 0.082-12.213-10.172-20.935-9.61-41.63 8.104-2.688 15.358-7.616 20.94-14.84 0.917 21.249-5.573 19.928-6.48 31.84 -1.511 20.052 22.174 35.669 27.74 56.09 1.939 7.062 2.03 35.213 1.99 42.561C42.492 241.322 58.322 240.284 32.619 241.855zM67.999 241.766c1.762-47.609-0.21-49.127-16.54-70.601 -22.601-29.594-7.548-34.703-6.54-50.26 0.21-3.27 0-6.56-0.21-9.84 2.15-2.82 3.97-5.86 5.51-9.05 0.795 13.27 0.928 13.425 0.83 15.92 -0.627 17.156-14.775 28.272 12.29 53.859 21.941 20.76 20.976 18.661 21.51 70.03C79.229 241.865 73.609 241.865 67.999 241.766zM85.059 241.825c0.35-11.354 1.576-40.352-1.78-48.91 -8.071-20.492-33.704-27.098-35.08-49.83 0.323 1 3.402 7.811 6.93 11.45 4.472 4.623 9.446 6.313 15.75 7.25 -17.932-13.084-14.028-28.113-13.65-42.38 0.263-9.843-1.635-17.335-3.74-25.39 4.287-12.413 4.894-24.4 7.4-33.84 5.711-21.558 22.336-43.879 38.589-27.22 0.006-0.017 0.2-0.286 0.21-0.3 0.008 0.011 0.188 0.291 0.19 0.3 13.404-16.837 29.143-4.305 37.7 17.34 11.029 27.882 1.583 37.684 13.29 55.6 0.491 11.79 1.402 25.005-13.83 42.95 -3.366 3.96-8.398 7.835-12 9.92 15.66-0.846 25.939-14.893 31.14-29.75 -15.514 57.917-43.439 15.318-35.93 103.479 0.343 4.205 0.894 8.792 1.021 9.55C109.791 242.117 111.782 241.719 85.059 241.825zM163.389 147.476c7.729-35.545-14.471-31.226-17.31-59.59 -0.996-10.411-0.63-29.001-12.86-48.65 -8.754-14.108-21.634-20.468-33.27-6.5 -0.04-0.08-0.09-0.16-0.141-0.24 15.769-21.402 42.415-19.527 49.341 26.27 4.381 29.034 5.438 27.162 15.17 47.38C168.679 115.133 174.634 126.9 163.389 147.476zM151.329 106.596c2.058 3.087 4.326 5.995 6.521 9.05 0 16.35-13.219 39.914-30.75 42.47 2.52-1.54 4.96-3.229 7.09-5.25C150.003 137.833 152.699 124.613 151.329 106.596zM167.939 156.695c1.3 5.5 3.699 10.57 3.729 16.32 -1.432 16.422-17.601 23.629-3.31 67.67 -9.831-0.523-19.654 0.533-37.141 1.149 -0.459-25.169-2.177-31.864-0.949-42.59 2.851-25.063 24.016-23.109 27.159-56.189 -4.017 34.862-28.503 30.377-29.029 61.109 -0.033 2.001 2.4 37.353 2.43 37.681 -2.771 0.093-6.599 0.199-9.37 0.199 -7.985-81.762 13.702-65.904 27.891-91.109 4.94-8.745 8.701-22.552 8.76-34.92 8.21 11.655 7.685 17.531 4.77 32.819 5.384-8.491 9.791-22.53 6.51-32.88 -1.094-4.394-4.797-11.869-6.25-14.88 -10.84-22.439-8.965-23.64-13-45.33 -7.404-40.292-33.264-47.161-50.39-23.33 -17.552-27.954-45.346-8.197-49.08 25.4 -1.354 12.346-0.255 38.468-26.65 63.02 1.906-14.99 8.729-22.372 13.75-34.22 12.649-29.735 1.814-50.492 18.65-67.33C38.122 37.494 51 59.408 34.099 91.476c-1.94 3.67-4.1 7.24-6 10.939 -5.854-64.179 16.384-121.011 75.59-107.03 40.783-10.329 64.18 25.442 67.6 67.79 1.471 18.212-0.248 34.59-0.54 38.77 -2.87-4.89-6.31-9.47-8.34-14.81 -11.876-31.337-1.556-52.06-19.32-67.28 18.119 16.345 6.485 41.9 19.79 71.61 2.613 4.897 5.803 9.391 8.16 14.36C180.63 126.046 163.44 137.618 167.939 156.695z" fill="#221512" stroke-width="none" opacity="1" stroke="none"/>
          </g>
          <g id="svga-group-glasses-single-move" transform="matrix(1,0,0,1,0,0)">
            <g id="svga-group-glasses-single" transform="matrix(1,0,0,1,0,0)">
              <path id="SvgjsPath3281" d="M143.62 100.1c-2.36 2.2-6.23 3.04-13.56 3.04 -9.78 0-16.18-1.09-20.41-9.51 -3.29-6.54-4.62-13.56-3.02-15.98 2.21-3.34 8.57-5.61 15.67-6.28C134.63 77.23 143.29 88.98 143.62 100.1zM72.01 71.17c-7.64 0.21-15.09 2.35-18.27 7.05 -2.18 3.21-1.69 12.55-0.22 16.94 2 5.99 5.07 7.98 16.42 7.98 9.78 0 16.18-1.09 20.41-9.51 0.42-0.84 0.81-1.69 1.17-2.54C88.29 82.95 81.16 75.43 72.01 71.17z" fill="#ffffff" stroke-width="none" opacity="0.2"/>
              <path id="SvgjsPath3282" d="M146.48 95.17c-0.71 2.12-1.56 3.73-2.86 4.94 -0.33-11.12-8.99-22.87-21.33-28.74 9.37-0.89 19.99 0.99 23.97 6.86C148.44 81.44 147.95 90.77 146.48 95.17zM93.38 77.65c-2.79-4.23-12.22-6.73-21.37-6.47 9.16 4.25 16.28 11.77 19.52 19.92C93.94 85.36 94.77 79.76 93.38 77.65z" fill="#ffffff" stroke-width="none" opacity="0.4"/>
              <path id="SvgjsPath3283" d="M151.79 73.61c-10.18-5.46-36.14-7.01-45.5 0.15 -0.8 0.47-4.23-0.53-6.29-0.53 -1.95 0-5.42 1.05-6.29 0.53 -9.36-7.16-35.32-5.61-45.5-0.15 -1.46 0.79-1.62 4.51-0.35 5.08 0.91 0.41 1.51 0.98 1.46 1.98C49 86.29 50.55 93.59 51.23 95.6c0.87 2.59 2.44 7.41 9.29 8.6 5.83 1.01 16.43 1.48 21.94-0.17 9.99-2.98 14.24-18.04 14.42-23.17l0.01 0.02c0.4-1.8 5.82-1.8 6.23 0l0.01-0.02c0.17 5.13 4.43 20.19 14.42 23.17 5.51 1.65 16.11 1.18 21.94 0.17 6.85-1.19 8.42-6.01 9.29-8.6 0.68-2.02 2.23-9.31 1.92-14.93 -0.05-1 0.56-1.57 1.46-1.98C153.41 78.12 153.25 74.4 151.79 73.61zM81.41 101.36c-5.06 1.51-14.32 1.61-19.71 0.67 -4.54-0.79-6.44-3.26-7.7-7.03 -1.48-4.4-1.87-13.51 0.16-16.5 6.76-9.98 33.87-8.05 38.8-0.58C95.16 81.27 90.89 98.53 81.41 101.36zM146 95.01c-1.26 3.77-3.17 6.24-7.7 7.03 -5.39 0.94-14.65 0.84-19.71-0.67 -9.48-2.83-13.75-20.09-11.55-23.44 4.93-7.47 32.04-9.4 38.8 0.58C147.87 81.49 147.48 90.61 146 95.01z" fill="#26120b" stroke-width="none" opacity="1"/>
              <path id="SvgjsPath3284" d="M118.58 101.32c2.79 0.83 6.86 1.24 10.85 1.27 -12.54 1.22-15.39-3.4-17.12-5.16 -3.52-3.59-5.69-8.95-5.85-16.65C106.49 86.86 110.76 98.99 118.58 101.32zM93.69 73.72c-9.36-7.16-35.32-5.62-45.5-0.15C71.43 67.05 84.93 70.42 93.69 73.72zM61.68 102c-4.54-0.79-6.44-3.26-7.7-7.03 -1.32-3.93-1.77-11.62-0.4-15.35 -1.83 4.22-1.12 12.39 0.26 16.5 1.6 4.8 4.54 7.18 17.34 6.46C67.71 102.65 64.25 102.44 61.68 102zM152.97 76.3c-0.04-1.13-0.45-2.32-1.2-2.73 -9.98-5.36-35.14-6.94-44.93-0.25C120 68.05 138.97 67.31 152.97 76.3z" fill="#351d15" stroke-width="none" opacity="1"/>
            </g>
          </g>
        </g>
      </g>
    </g>
  </g>
</svg>
